<?xml version="1.0" encoding="UTF-8"?>
<svg id="Layer_2" data-name="Layer 2" xmlns="http://www.w3.org/2000/svg" viewBox="0 0 400 400">
  <defs>
    <style>
      .cls-1 {
        fill: #0d1b14;
      }
    </style>
  </defs>
  <path class="cls-1" d="M377.86,190.04v-55.02h-11.26v-44.57h-22.65v-10.83h-31.85v-22.65h-58.2v21.69h-109.92v-22.65h-56.07v22.65h-31.85v10.83h-22.65v44.57h-11.26v55.02H0v122.73h33.4v10.81h34.27v20.43h31.24v-31.24h-11.01v-22.29h45.1v21.87h11.33v11.24h88.91v.96h22.43v-11.24h11.33v-21.87h45.1v22.29h-11.01v31.24h31.24v-20.43h34.27v-10.81h33.4v-122.73h-22.14ZM166.76,233.59h-11.71v11.39h-10.72v11.01h-33.69v-11.08h-10.81v-11.33h-11.95v-33.11h11.75v-11.55h11.01v-11.28h33.31v11.33h11.53v11.51h11.26v33.11h.02ZM312.1,233.59h-12.81v11.33h-11.01v12.04h-32.61v-11.01h-.11v-.96h-11.8v-11.39h-10.5v-33.11h10.9v-11.51h11.39v-10.36h32.75v10.32h12.07v12.49h11.75v32.16h-.02Z"/>
</svg>