<svg width="65" height="65" viewBox="0 0 65 65" fill="none" xmlns="http://www.w3.org/2000/svg">
<path d="M20.4215 55.4294V58.3467H8.7522V49.5947H11.6695V55.4294H20.4215Z" fill="#00FFBC"/>
<path d="M55.4292 49.5947V58.3467H46.6772V55.4294H52.5119V49.5947H55.4292Z" fill="#00FFBC"/>
<path d="M43.7597 58.3466V64.1813H23.3384V58.3466H26.2557V55.4293H32.0904V52.5119H29.173V49.5946H26.2557V40.8426H29.173V37.9253H37.925V40.8426H40.8424V49.5946H37.925V52.5119H35.0077V55.4293H40.8424V58.3466H43.7597Z" fill="#00FFBC"/>
<path d="M64.1813 40.8426V46.6773H43.76V40.8426H46.6773V37.9253H52.512V35.0079H49.5947V32.0906H46.6773V23.3386H49.5947V20.4213H58.3467V23.3386H61.264V32.0906H58.3467V35.0079H55.4293V37.9253H61.264V40.8426H64.1813Z" fill="#00FFBC"/>
<path d="M20.4213 40.8426V46.6773H0V40.8426H2.91733V37.9253H8.75199V35.0079H5.83466V32.0906H2.91733V23.3386H5.83466V20.4213H14.5866V23.3386H17.504V32.0906H14.5866V35.0079H11.6693V37.9253H17.504V40.8426H20.4213Z" fill="#00FFBC"/>
<path d="M20.4215 5.83459V8.75192H11.6695V17.5039H8.7522V5.83459H20.4215Z" fill="#00FFBC"/>
<path d="M55.4292 5.83459V17.5039H52.5118V8.75192H40.8425V5.83459H55.4292Z" fill="#00FFBC"/>
<path d="M40.8422 20.4213V26.256H20.4209V20.4213H23.3382V17.504H29.1729V14.5866H26.2556V11.6693H23.3382V2.91733H26.2556V0H35.0075V2.91733H37.9249V11.6693H35.0075V14.5866H32.0902V17.504H37.9249V20.4213H40.8422Z" fill="#00FFBC"/>
</svg>
