<svg width="65" height="44" viewBox="0 0 65 44" fill="none" xmlns="http://www.w3.org/2000/svg">
<path d="M40.8424 26.2559H23.3384V32.0905H40.8424V26.2559Z" fill="#00FFBC"/>
<path d="M61.2639 17.504V11.6693H58.3466V5.83466H55.4293V2.91733H52.5119V0H40.8426V2.91733H23.3386V0H11.6693V2.91733H8.75199V5.83466H5.83466V11.6693H2.91733V17.504H0V40.8426H2.91733V43.7599H11.6693V40.8426H14.5866V37.9253H17.504V35.0079H20.4213V26.256H23.3386V23.3386H40.8426V26.256H43.7599V35.0079H46.6773V37.9253H49.5946V40.8426H52.5119V43.7599H61.2639V40.8426H64.1813V17.504H61.2639ZM11.6693 11.6693V8.75199H14.5866V5.83466H17.504V8.75199H20.4213V11.6693H23.3386V14.5866H20.4213V17.504H17.504V20.4213H14.5866V17.504H11.6693V14.5866H8.75199V11.6693H11.6693ZM35.008 14.5866H32.0906V17.504H29.1733V14.5866H26.256V11.6693H29.1733V8.75199H32.0906V11.6693H35.008V14.5866ZM55.4293 17.504H49.5946V23.3386H43.7599V17.504H37.9253V11.6693H43.7599V5.83466H49.5946V11.6693H55.4293V17.504Z" fill="#00FFBC"/>
<path d="M49.5944 11.6694H43.7598V17.5041H49.5944V11.6694Z" fill="#00FFBC"/>
</svg>
