<svg width="59" height="65" viewBox="0 0 59 65" fill="none" xmlns="http://www.w3.org/2000/svg">
<path d="M2.91733 55.4292H0V61.2639H2.91733V55.4292Z" fill="#00FFBC"/>
<path d="M5.83481 49.5946H2.91748V55.4293H5.83481V49.5946Z" fill="#00FFBC"/>
<path d="M8.75205 43.7599H5.83472V49.5946H8.75205V43.7599Z" fill="#00FFBC"/>
<path d="M11.6695 40.8426H8.7522V43.7599H11.6695V40.8426Z" fill="#00FFBC"/>
<path d="M14.5868 37.9253H11.6694V40.8426H14.5868V37.9253Z" fill="#00FFBC"/>
<path d="M17.5042 35.0079H14.5869V37.9253H17.5042V35.0079Z" fill="#00FFBC"/>
<path d="M20.4217 32.0906H17.5044V35.008H20.4217V32.0906Z" fill="#00FFBC"/>
<path d="M40.8426 32.0906H37.9253V35.008H40.8426V32.0906Z" fill="#00FFBC"/>
<path d="M43.7599 35.0079H40.8425V37.9253H43.7599V35.0079Z" fill="#00FFBC"/>
<path d="M46.6773 37.9253H43.76V40.8426H46.6773V37.9253Z" fill="#00FFBC"/>
<path d="M49.5946 40.8426H46.6772V43.7599H49.5946V40.8426Z" fill="#00FFBC"/>
<path d="M52.5121 43.7599H49.5947V49.5946H52.5121V43.7599Z" fill="#00FFBC"/>
<path d="M55.4295 49.5946H52.5122V55.4293H55.4295V49.5946Z" fill="#00FFBC"/>
<path d="M58.3468 55.4292H55.4294V61.2639H58.3468V55.4292Z" fill="#00FFBC"/>
<path d="M55.4294 61.2639H2.91748V64.1812H55.4294V61.2639Z" fill="#00FFBC"/>
<path d="M49.5947 55.4292V49.5946H46.6773V43.7599H43.76V40.8426H40.8427V37.9253H37.9253V35.0079H29.1734V37.9253H26.256V40.8426H14.5867V43.7599H11.6694V49.5946H8.75205V55.4292H5.83472V58.3466H52.512V55.4292H49.5947ZM17.504 46.6773H23.3387V52.5119H17.504V46.6773ZM29.1734 43.7599H32.0907V46.6773H29.1734V43.7599Z" fill="#00FFBC"/>
<path d="M37.9251 5.83466H35.0078V32.0906H37.9251V5.83466Z" fill="#00FFBC"/>
<path d="M23.3382 5.83466H20.4209V32.0906H23.3382V5.83466Z" fill="#00FFBC"/>
<path d="M40.8426 2.91736H37.9253V5.83469H40.8426V2.91736Z" fill="#00FFBC"/>
<path d="M20.4217 2.91736H17.5044V5.83469H20.4217V2.91736Z" fill="#00FFBC"/>
<path d="M37.9249 0H20.4209V2.91733H37.9249V0Z" fill="#00FFBC"/>
</svg>
