<svg width="65" height="65" viewBox="0 0 65 65" fill="none" xmlns="http://www.w3.org/2000/svg">
<path d="M46.6776 17.504H17.5043V46.6773H46.6776V17.504Z" fill="#00FFBC"/>
<path d="M58.3466 11.6693V5.83466H52.5119V0H46.6773V5.83466H40.8426V0H35.008V5.83466H29.1733V0H23.3386V5.83466H17.504V0H11.6693V5.83466H5.83466V11.6693H0V17.504H5.83466V23.3386H0V29.1733H5.83466V35.008H0V40.8426H5.83466V46.6773H0V52.5119H5.83466V58.3466H11.6693V64.1813H17.504V58.3466H23.3386V64.1813H29.1733V58.3466H35.008V64.1813H40.8426V58.3466H46.6773V64.1813H52.5119V58.3466H58.3466V52.5119H64.1813V46.6773H58.3466V40.8426H64.1813V35.008H58.3466V29.1733H64.1813V23.3386H58.3466V17.504H64.1813V11.6693H58.3466ZM52.5119 52.5119H11.6693V11.6693H52.5119V52.5119Z" fill="#00FFBC"/>
</svg>
