<?xml version="1.0" encoding="UTF-8"?>
<svg id="Layer_2" data-name="Layer 2" xmlns="http://www.w3.org/2000/svg" viewBox="0 0 400 400">
  <defs>
    <style>
      .cls-1 {
        fill: #0d1b14;
      }
    </style>
  </defs>
  <polygon class="cls-1" points="36.37 36.37 18.18 36.37 18.18 72.71 0 72.71 0 327.29 18.18 327.29 18.18 363.63 36.37 363.63 36.37 381.82 72.71 381.82 72.71 345.47 54.53 345.47 54.53 327.29 36.37 327.29 36.37 72.71 54.53 72.71 54.53 54.53 72.71 54.53 72.71 18.18 36.37 18.18 36.37 36.37"/>
  <path class="cls-1" d="M145.22,90.9v18.18h-17.96v18.18h-18.18v18.18h-18.18v108.4h18.18v18.87h18.18v18.18h18.18v18.18h109.33v-18.18h17.96v-18.18h18.18v-18.18h18.18v-108.4h-18.18v-18.87h-18.18v-18.18h-18.18v-18.18h-109.33ZM254.55,254.55h-18.18v18.18h-72.74v-18.18h-18.18v-18.18h-18.18v-72.74h18.18v-18.18h18.18v-18.18h72.74v18.18h18.18v18.18h18.18v72.74h-18.18v18.18Z"/>
  <polygon class="cls-1" points="381.82 72.71 381.82 36.37 363.63 36.37 363.63 18.18 327.29 18.18 327.29 0 72.71 0 72.71 36.37 327.29 36.37 327.29 54.53 345.47 54.53 345.47 72.71 363.63 72.71 363.63 327.29 345.47 327.29 345.47 345.47 327.29 345.47 327.29 363.63 72.71 363.63 72.71 400 327.29 400 327.29 381.82 363.63 381.82 363.63 363.63 381.82 363.63 381.82 327.29 400 327.29 400 72.71 381.82 72.71"/>
  <rect class="cls-1" x="290.92" y="72.71" width="36.37" height="36.37"/>
</svg>