<svg width="1363" height="229" viewBox="0 0 1363 229" fill="none" xmlns="http://www.w3.org/2000/svg">
<path d="M851.649 132.424V99.4893H819.024V132.424H851.649Z" fill="black"/>
<path d="M816.23 132.424V115.957H799.917V132.424H816.23Z" fill="black"/>
<path d="M797.123 132.196V123.963H788.967V132.196H797.123Z" fill="black"/>
<path d="M369.373 164.139V131.205H336.748V164.139H369.373Z" fill="black"/>
<path d="M333.878 164.14V147.672H317.565V164.14H333.878Z" fill="black"/>
<path d="M314.771 163.834V155.601H306.615V163.834H314.771Z" fill="black"/>
<path d="M1302.58 31.943V0.380585L1271.32 0.380585V31.943L1302.58 31.943Z" fill="#0A1911"/>
<path d="M1320.94 31.9433V16.1622H1305.3V31.9433H1320.94Z" fill="#0A1911"/>
<path d="M1331.43 31.7142V23.8618H1323.65V31.7142H1331.43Z" fill="#0A1911"/>
<path d="M1093.54 228.179V195.244H1060.92V228.179H1093.54Z" fill="#0A1911"/>
<path d="M1112.72 228.18V211.712H1096.41V228.18H1112.72Z" fill="#0A1911"/>
<path d="M1123.68 227.95V219.716H1115.52V227.95H1123.68Z" fill="#0A1911"/>
<path d="M31.3415 194.94L31.3415 163.377H0.0758934L0.0758934 194.94H31.3415Z" fill="#0A1911"/>
<path d="M129.141 0V194.864H31.2656V187.774C27.3386 189.146 22.9583 189.984 18.0495 189.984C11.026 189.984 5.0599 188.383 0.0755226 185.639C0.0755226 191.28 0 196.998 0 202.64V227.875H162.219V194.94H193.031V0.0762249H129.141V0Z" fill="#0A1911"/>
<path d="M675.308 228.179H611.417V130.747H579.245V162.767H546.62V130.747H515.354V228.179H449.651V0.380585H513.542V31.4856H546.62V64.8777H577.433V32.8578H610.511V0.380585H675.308V228.179Z" fill="#0A1911"/>
<path d="M1062.65 218.802C1062.35 217.353 1062.13 215.905 1062.05 214.38C1061.14 210.111 1061.14 205.918 1062.13 201.648C1062.13 201.115 1062.13 200.657 1062.13 200.123L1060.99 202.106C1060.99 201.115 1061.52 200.276 1062.13 199.437C1062.13 198.446 1062.13 197.455 1062.13 196.464C1062.13 196.007 1062.28 195.625 1062.28 195.244C1061.97 195.244 1061.67 195.244 1061.45 195.244V31.943H1125.34V0.380585H931.852V33.3153H995.743V196.159H931.852V228.179H1062.88C1062.81 225.053 1062.73 221.927 1062.65 218.802Z" fill="#0A1911"/>
<path d="M1272.75 28.7407C1270.94 21.9556 1270.94 15.2466 1272.75 8.46148C1273.89 5.71692 1275.02 3.04861 1276.15 0.304047H1140.89V33.2387H1206.14V228.102H1270.94V31.8665H1273.96C1273.51 30.7991 1273.06 29.7318 1272.75 28.6645V28.7407Z" fill="#0A1911"/>
<path d="M916.446 96.9744V31.5624H884.274V0H690.79V227.798H885.633V194.864H916.446V129.452H885.18V96.9744H916.446ZM851.649 96.9744V194.864H755.586V32.9347H851.649V96.9744Z" fill="#0A1911"/>
<path d="M401.998 63.5823V31.105H369.373V0H272.404V32.9347H239.326V65.412H208.513V227.798H273.31V165.36V162.844V129.909V65.412H304.122V32.9347H337.201V63.5823H369.373V129.909V162.844V165.36V227.798H434.169V63.5823H401.998Z" fill="#0A1911"/>
<path d="M1331.21 196.617H1346.76V212.398H1331.21V228.179H1362.4V196.617H1331.21Z" fill="#0A1911"/>
</svg>
