<?xml version="1.0" encoding="UTF-8"?>
<svg id="Layer_2" data-name="Layer 2" xmlns="http://www.w3.org/2000/svg" viewBox="0 0 400 400">
  <defs>
    <style>
      .cls-1 {
        fill: #0d1b14;
      }
    </style>
  </defs>
  <polygon class="cls-1" points="214.85 175.09 214.85 161.18 256.54 161.18 256.54 147.27 283.81 147.27 283.81 119.45 269.8 119.45 269.8 105.54 242.22 105.54 242.22 91.63 172.73 91.63 172.73 105.54 144.53 105.54 144.53 119.45 131.28 119.45 131.28 133.36 131.28 147.27 116.19 147.27 116.19 175.09 116.19 189.02 116.19 192.25 116.19 216.84 131.28 216.84 131.28 230.75 131.28 244.66 144.53 244.66 144.53 258.57 172.72 258.57 172.72 272.48 242.22 272.48 242.22 258.57 269.8 258.57 269.8 244.66 283.81 244.66 283.81 216.84 256.54 216.84 256.54 202.93 214.85 202.93 214.85 189.02 172.45 189.02 172.45 175.09 214.85 175.09"/>
</svg>