<svg width="42" height="38" viewBox="0 0 42 38" fill="none" xmlns="http://www.w3.org/2000/svg">
<path d="M8.33333 18.75H10.4167V20.8333H22.9167V18.75H25V16.6667H27.0833V4.16667H25V2.08333H22.9167V0H10.4167V2.08333H8.33333V4.16667H6.25V16.6667H8.33333V18.75ZM10.4167 8.33333H12.5V6.25H14.5833V4.16667H18.75V6.25H20.8333V8.33333H22.9167V12.5H20.8333V14.5833H18.75V16.6667H14.5833V14.5833H12.5V12.5H10.4167V8.33333Z" fill="#00FFBC"/>
<path d="M29.1667 25H27.0833V22.9166H4.16667V25H2.08333V27.0833H0V37.5H4.16667V31.25H6.25V29.1666H8.33333V27.0833H22.9167V29.1666H25V31.25H27.0833V37.5H31.25V27.0833H29.1667V25Z" fill="#00FFBC"/>
<path d="M33.3332 18.75H35.4165V16.6667H37.4998V4.16667H35.4165V2.08333H33.3332V0H31.2498H29.1665V6.25H31.2498V8.33333H33.3332V10.4167V12.5H31.2498V14.5833H29.1665V20.8333H33.3332V18.75Z" fill="#00FFBC"/>
<path d="M39.5835 27.0833V25H37.5002V22.9166H33.3335V29.1666H35.4168V31.25H37.5002V37.5H41.6668V27.0833H39.5835Z" fill="#00FFBC"/>
</svg>
