<svg width="42" height="42" viewBox="0 0 42 42" fill="none" xmlns="http://www.w3.org/2000/svg">
<path d="M2.08333 0V2.08333H0V35.4167H2.08333V37.5H8.33333V33.3333H6.25V31.25H4.16667V6.25H6.25V4.16667H10.4167V0H2.08333Z" fill="#00FFBC"/>
<path d="M39.5833 14.5833V12.5H37.5V10.4166H35.4167V8.33329H33.3333V6.24996H31.25V4.16663H14.5833V6.24996H12.5V39.5833H14.5833V41.6666H39.5833V39.5833H41.6667V14.5833H39.5833ZM37.5 35.4166H35.4167V37.5H18.75V35.4166H16.6667V10.4166H18.75V8.33329H25V20.8333H37.5V35.4166ZM33.3333 14.5833V16.6666H29.1667V12.5H31.25V14.5833H33.3333Z" fill="#00FFBC"/>
</svg>
