<svg width="42" height="42" viewBox="0 0 42 42" fill="none" xmlns="http://www.w3.org/2000/svg">
<path d="M29.1667 14.5833V12.5H27.0833V8.33333H25V4.16667H22.9167V0H18.75V4.16667H16.6667V8.33333H14.5833V12.5H12.5V14.5833H0V18.75H2.08333V20.8333H4.16667V22.9167H6.25V25H8.33333V33.3333H6.25V37.5H4.16667V41.6667H10.4167V39.5833H14.5833V37.5H16.6667V35.4167H25V37.5H27.0833V39.5833H31.25V41.6667H37.5V37.5H35.4167V33.3333H33.3333V25H35.4167V22.9167H37.5V20.8333H39.5833V18.75H41.6667V14.5833H29.1667ZM29.1667 20.8333V22.9167H27.0833V27.0833H29.1667V31.25H25V29.1667H16.6667V31.25H12.5V27.0833H14.5833V22.9167H12.5V20.8333H10.4167V18.75H16.6667V16.6667H18.75V12.5H22.9167V16.6667H25V18.75H31.25V20.8333H29.1667Z" fill="#00FFBC"/>
</svg>
